<?xml version="1.0" encoding="utf-8"?>
<!-- Generator: Adobe Illustrator 25.2.0, SVG Export Plug-In . SVG Version: 6.00 Build 0)  -->
<svg version="1.1" id="Layer_1" xmlns="http://www.w3.org/2000/svg" xmlns:xlink="http://www.w3.org/1999/xlink" x="0px" y="0px"
	 viewBox="0 0 735 248.6" style="enable-background:new 0 0 735 248.6;" xml:space="preserve">
<style type="text/css">
	.st0{fill:#235E99;}
	.st1{fill:url(#SVGID_1_);}
	.st2{fill:url(#SVGID_2_);}
	.st3{fill:url(#SVGID_3_);}
	.st4{fill:none;}
	.st5{fill:#938060;}
	.st6{fill:url(#SVGID_4_);}
	.st7{fill:url(#SVGID_5_);}
	.st8{fill:url(#SVGID_6_);}
	.st9{fill:url(#SVGID_7_);}
	.st10{fill:url(#SVGID_8_);}
</style>
<g>
	<path class="st0" d="M511.7,172.9c0,8-3.1,14.8-9.4,20.6c-6.3,5.8-13.4,8.7-21.5,8.7c-8.6,0-15.8-2.5-21.7-7.5
		c-3.9-3.6-7.5-7.1-10.8-10.3l10.3-10.3c6.2,7.5,13.8,11.9,22.8,13.2c4.2,0,7.6-1.4,10.2-4.2c2.6-2.8,3.9-6.3,3.9-10.5
		c0-5-3.6-9.2-10.7-12.6c-6.6-3.1-13.3-6.2-19.9-9.2c-7.1-4.7-10.7-11.2-10.7-19.4c0-7.3,3.1-13.2,9.4-17.8
		c5.7-4.1,12.2-6.2,19.7-6.2c11.2,0,19.5,3.2,25.1,9.7l-9.4,10.8c-5.2-3.9-10.6-5.9-16.2-5.9c-3,0-5.8,0.8-8.2,2.5
		c-2.8,1.8-4.2,4.2-4.2,7.1c0,3.6,2.2,6.6,6.5,8.9c0.5,0.2,4.1,1.6,11,4.1c4.3,1.6,8.4,3.7,12.2,6.4c4.6,3.3,7.6,6.6,9.1,10.1
		c0.6,1.2,1.2,3.3,1.8,6.2C511.4,169,511.7,171,511.7,172.9z"/>
	<path class="st0" d="M569.6,123.3l-18.3,0.4v76.4h-16v-76.4l-18.8-0.4L517,109h52.7V123.3z"/>
	<path class="st0" d="M665.4,200.1H648l-6-11.8h-47.2l-5.4,11.8h-17.6l46.8-94.9L665.4,200.1z M635.1,174l-16.6-34.8L600.6,174
		H635.1z"/>
	<path class="st0" d="M706,137.1c-2.6-8.5-10-12.6-22.1-12.3v38.9l0.1,36.4h-16.1v-90.9h18.6c11.2,0,19.9,2.4,26,7.3
		c7.2,6.2,11,15.1,11.3,26.6c-0.3,8.5-3.1,15.4-8.4,20.7l-5.9,5.9l21.7,30.5h-19.4l-25.3-36.4c9.8-1.3,16.2-5.7,19.2-13.3
		C707.4,145.8,707.6,141.4,706,137.1z"/>
	<linearGradient id="SVGID_1_" gradientUnits="userSpaceOnUse" x1="278.2679" y1="202.1742" x2="278.2679" y2="107.3094">
		<stop  offset="0" style="stop-color:#807D48"/>
		<stop  offset="2.136924e-02" style="stop-color:#837E4C"/>
		<stop  offset="0.1387" style="stop-color:#92825B"/>
		<stop  offset="0.2772" style="stop-color:#9A8463"/>
		<stop  offset="0.4884" style="stop-color:#9D8566"/>
		<stop  offset="0.719" style="stop-color:#9B8463"/>
		<stop  offset="0.8577" style="stop-color:#92825B"/>
		<stop  offset="0.9718" style="stop-color:#857E4D"/>
		<stop  offset="1" style="stop-color:#807D48"/>
	</linearGradient>
	<path class="st1" d="M311,154.6c0,13.3-4.9,24.5-14.8,33.8c-9.8,9.2-21.5,13.8-34.8,13.8c-13.5,0-25.1-4.6-34.8-13.7
		c-9.8-9.1-14.6-20.4-14.6-33.9c0-13.3,5-24.6,14.9-33.8c9.7-8.9,21.2-13.4,34.6-13.4c13.4,0,24.9,4.5,34.7,13.4
		C306,130,311,141.3,311,154.6z M294.9,154.6c0-9.2-3.3-16.9-9.8-23.3c-6.5-6.3-14.4-9.5-23.7-9.5c-9.3,0-17.2,3.1-23.7,9.4
		c-6.5,6.3-9.8,14-9.8,23.3c0,9.1,3.3,16.8,9.9,23.1c6.6,6.3,14.5,9.5,23.6,9.5c9.1,0,17-3.2,23.6-9.5
		C291.6,171.3,294.9,163.6,294.9,154.6z M361.1,200.1h-43.4v-90.9h16.1v76.4h27.3V200.1z M442.9,153.4c0,14.8-5,26.5-15,34.9
		c-9.4,7.8-21.7,11.7-36.9,11.7h-22.3v-90.9h21.2c14.8,0,27,3.6,36.8,10.8C437.5,128,442.9,139.2,442.9,153.4z M426.7,154.4
		c0-20.5-13.9-30.8-41.8-30.8v61.9h4.4c10.8,0,19.6-2.4,26.2-7.3C422.9,172.9,426.7,164.9,426.7,154.4z M139.6,131.2
		c6.6-6.2,14.2-9.4,22.6-9.4c6.4,0,11.9,1.3,16.5,3.8l10.7-11.7l-4.6-2.1c-6.3-3-14.1-4.6-23.3-4.6c-12.5,0-23.6,4.7-33.3,14
		c-9.8,9.3-14.6,20.2-14.6,32.7c0,0.2,0,0.4,0,0.6l20.2-16.4C135.4,135.7,137.3,133.4,139.6,131.2z M123.4,182.7
		c6.5,8.6,14.8,14.6,24.9,17.8c3.3,1.1,8.1,1.6,14.5,1.6c5,0,10.5-1.1,16.4-3.4c8.6-3.4,15.4-8.7,20.2-16c4.9-7.3,7.3-15.5,7.3-24.7
		v-6.3h-40.6v14.8h23.3c-1.1,6.2-4.6,11.4-10.5,15.4c-5.4,3.7-11.4,5.5-18.1,5.5c-8.6,0-16-3.6-22.1-10.7
		c-4.7-5.4-7.5-11.4-8.4-17.9l-12.8,13.9C119,176.2,121,179.5,123.4,182.7z"/>
	<linearGradient id="SVGID_2_" gradientUnits="userSpaceOnUse" x1="193.1167" y1="132.9532" x2="433.3714" y2="45.5076">
		<stop  offset="9.302326e-03" style="stop-color:#807D48"/>
		<stop  offset="0.107" style="stop-color:#9D8566"/>
	</linearGradient>
	<polygon class="st2" points="174.1,80.8 182,98.2 452.4,97.7 	"/>
	<linearGradient id="SVGID_3_" gradientUnits="userSpaceOnUse" x1="127.5555" y1="49.7986" x2="181.9638" y2="49.7986">
		<stop  offset="0.214" style="stop-color:#9D8566"/>
		<stop  offset="0.4558" style="stop-color:#9D8566"/>
	</linearGradient>
	<polygon class="st3" points="174,80.7 138.4,1.3 127.6,23.4 152.2,80.3 160,98.3 182,98.2 174.1,80.8 	"/>
	<polygon class="st4" points="117.5,43.9 100.5,78.4 100.5,78.4 	"/>
	<polygon class="st5" points="127.6,23.4 117.5,43.9 127.6,23.4 	"/>
	<linearGradient id="SVGID_4_" gradientUnits="userSpaceOnUse" x1="82.0265" y1="79.7114" x2="140.9849" y2="52.2186">
		<stop  offset="0.7209" style="stop-color:#9D8566"/>
		<stop  offset="1" style="stop-color:#807D48"/>
	</linearGradient>
	<polygon class="st6" points="117.4,98.3 137.8,47.5 127.6,23.4 117.5,43.9 100.5,78.4 100.5,78.4 90.7,98.3 	"/>
	<linearGradient id="SVGID_5_" gradientUnits="userSpaceOnUse" x1="7.6461" y1="68.2369" x2="92.874" y2="99.2573">
		<stop  offset="0.7628" style="stop-color:#9D8566"/>
		<stop  offset="0.9721" style="stop-color:#807D48"/>
	</linearGradient>
	<polygon class="st7" points="59.8,98.3 90.7,98.3 100.5,78.4 3.9,78.4 25.3,98.3 59.9,98.3 	"/>
	<polygon class="st4" points="73,142.6 59.1,129.7 73,142.7 	"/>
	<linearGradient id="SVGID_6_" gradientUnits="userSpaceOnUse" x1="63.7695" y1="98.2752" x2="63.7695" y2="159.4386">
		<stop  offset="2.790698e-02" style="stop-color:#807D48"/>
		<stop  offset="0.293" style="stop-color:#9D8566"/>
	</linearGradient>
	<polygon class="st8" points="73,142.7 91,159.4 102.2,135 59.9,98.3 25.3,98.3 59.1,129.7 52.3,123.4 59.1,129.7 73,142.6 	"/>
	<linearGradient id="SVGID_7_" gradientUnits="userSpaceOnUse" x1="25.4502" y1="233.2433" x2="89.7031" y2="156.6696">
		<stop  offset="0.693" style="stop-color:#9D8566"/>
		<stop  offset="0.9721" style="stop-color:#807D48"/>
	</linearGradient>
	<polygon class="st9" points="77.5,188.8 91,159.4 73,142.7 42.1,247.2 77.5,188.7 	"/>
	<linearGradient id="SVGID_8_" gradientUnits="userSpaceOnUse" x1="80.1428" y1="181.4" x2="109.9028" y2="198.5819">
		<stop  offset="4.651163e-03" style="stop-color:#807D48"/>
		<stop  offset="0.3488" style="stop-color:#9D8566"/>
	</linearGradient>
	<polygon class="st10" points="147.9,132.7 77.5,188.7 42.1,247.2 42.1,247.3 	"/>
	<g>
		<g>
			<path class="st0" d="M103.5,230.3H85.2v0.7c0,1.9,0.3,3.7,0.8,5.3c0.5,1.6,1.4,2.9,2.7,3.9c1.2,1,2.8,1.5,4.7,1.5
				c1.9,0,3.6-0.5,5.1-1.4c1.6-0.9,2.8-2.2,3.7-4l0.9,0.4c-0.7,1.8-1.6,3.4-2.6,4.6c-1,1.2-2.2,2.1-3.6,2.6c-1.4,0.6-3,0.8-4.9,0.8
				c-1.9,0-3.6-0.3-5.1-1c-1.5-0.7-2.7-1.7-3.7-2.9c-1-1.2-1.8-2.7-2.3-4.4s-0.8-3.5-0.8-5.4c0-1.9,0.3-3.7,0.9-5.4
				c0.6-1.6,1.4-3.1,2.5-4.4c1.1-1.3,2.4-2.3,4-3s3.2-1,4.9-1c2.2,0,4.1,0.5,5.7,1.4c1.7,0.9,3,2.3,3.9,4.1c0.9,1.8,1.4,4.1,1.4,6.8
				V230.3z M85.3,228.5H96c1,0,1.7-0.2,2-0.7c0.3-0.5,0.5-1.2,0.5-2c0-1-0.2-2-0.6-3c-0.4-1-1-1.9-1.9-2.6c-0.9-0.7-1.9-1-3.2-1
				c-1.6,0-3,0.4-4.1,1.3c-1.1,0.9-1.9,2-2.4,3.5C85.7,225.4,85.4,226.9,85.3,228.5z"/>
			<path class="st0" d="M115.9,240.7l8.2-10l-5.3-7.6c-1.7-2.5-3.7-4-5.9-4.6v-0.4h12.5v0.4c-2,0.4-2.9,1-2.9,1.9
				c0,0.4,0.3,0.9,0.8,1.8l4.1,5.9l5-6.5c0.5-0.7,0.8-1.2,0.8-1.6c0-0.5-0.8-1-2.4-1.5v-0.4h9.3v0.4c-1.1,0.2-2.1,0.7-3.2,1.5
				c-1.1,0.9-2.2,2.1-3.5,3.6l-4.9,6l7.1,10c0.8,1.1,1.7,2,2.5,2.7c0.8,0.7,1.8,1.1,3,1.3v0.4h-12.1v-0.4c1-0.3,1.7-0.6,2.1-0.7
				c0.4-0.2,0.5-0.5,0.5-0.8c0-0.4-0.1-0.9-0.4-1.3s-0.9-1.4-1.8-2.8l-4.1-5.9l-6,7.6c-0.6,0.7-0.9,1.4-0.9,2c0,0.5,0.2,0.9,0.7,1.1
				c0.5,0.3,1.2,0.5,2.3,0.8v0.4H112v-0.4C113.4,243.3,114.7,242.3,115.9,240.7z"/>
			<path class="st0" d="M173.8,230.3h-18.3v0.7c0,1.9,0.3,3.7,0.8,5.3c0.5,1.6,1.4,2.9,2.7,3.9c1.2,1,2.8,1.5,4.7,1.5
				c1.9,0,3.6-0.5,5.1-1.4c1.6-0.9,2.8-2.2,3.7-4l0.9,0.4c-0.7,1.8-1.6,3.4-2.6,4.6s-2.2,2.1-3.6,2.6c-1.4,0.6-3,0.8-4.9,0.8
				c-1.9,0-3.6-0.3-5.1-1c-1.5-0.7-2.7-1.7-3.7-2.9c-1-1.2-1.8-2.7-2.3-4.4s-0.8-3.5-0.8-5.4c0-1.9,0.3-3.7,0.9-5.4
				c0.6-1.6,1.4-3.1,2.5-4.4c1.1-1.3,2.4-2.3,4-3c1.5-0.7,3.2-1,4.9-1c2.2,0,4.1,0.5,5.7,1.4c1.7,0.9,3,2.3,3.9,4.1
				c0.9,1.8,1.4,4.1,1.4,6.8V230.3z M155.6,228.5h10.7c1,0,1.7-0.2,2-0.7c0.3-0.5,0.5-1.2,0.5-2c0-1-0.2-2-0.6-3
				c-0.4-1-1-1.9-1.9-2.6c-0.9-0.7-1.9-1-3.2-1c-1.6,0-3,0.4-4.1,1.3c-1.1,0.9-1.9,2-2.4,3.5C156,225.4,155.7,226.9,155.6,228.5z"/>
			<path class="st0" d="M206.4,217.4v9.2h-0.4c-1.5-5-4.2-7.4-8-7.4c-1.9,0-3.5,0.6-4.7,1.7c-1.2,1.1-2,2.6-2.5,4.3
				c-0.5,1.7-0.7,3.6-0.7,5.6c0,1.3,0.1,2.6,0.4,4c0.3,1.3,0.7,2.5,1.4,3.5c0.6,1.1,1.5,1.9,2.5,2.5c1.1,0.6,2.3,1,3.8,1
				c1.8,0,3.4-0.5,4.8-1.5c1.4-1,2.5-2.3,3.3-4l0.9,0.4c-0.6,1.8-1.4,3.3-2.5,4.5c-1,1.2-2.2,2.1-3.6,2.7c-1.4,0.6-2.8,0.9-4.4,0.9
				c-2,0-3.8-0.4-5.3-1.1c-1.5-0.7-2.8-1.7-3.7-3c-1-1.3-1.7-2.8-2.2-4.4c-0.5-1.6-0.7-3.3-0.7-5.2c0-1.9,0.3-3.7,0.9-5.4
				c0.6-1.7,1.5-3.1,2.7-4.4c1.2-1.3,2.5-2.3,4-2.9c1.5-0.7,3.2-1,5-1c1.3,0,2.7,0.2,4.1,0.5c1.4,0.3,2.2,0.5,2.4,0.5
				c1,0,1.6-0.3,1.9-1H206.4z"/>
			<path class="st0" d="M238.2,244.1v-4.3h-0.1c-0.8,1.2-1.5,2.2-2.3,2.9c-0.8,0.7-1.7,1.3-2.7,1.6s-2.3,0.5-3.7,0.5
				c-2.2,0-4-0.6-5.5-1.8c-1.5-1.2-2.2-3.1-2.2-5.7V223c0-1-0.1-1.7-0.4-2.2c-0.3-0.5-0.7-0.9-1.4-1.2c-0.6-0.3-1.7-0.6-3.2-1v-0.4
				h9.5c-0.2,1.4-0.4,2.9-0.4,4.5v12.8c0,4.2,1.7,6.3,5.1,6.3c2.2,0,4-0.7,5.3-2.1c1.3-1.4,2-2.8,2-4.4V223c0-1-0.1-1.7-0.4-2.2
				c-0.3-0.5-0.7-0.9-1.4-1.2c-0.6-0.3-1.7-0.6-3.2-1v-0.4h9.5c-0.1,0.5-0.2,1.2-0.3,2.1c-0.1,0.9-0.1,1.7-0.1,2.4v16.8
				c0,0.8,0.1,1.5,0.4,1.9c0.3,0.5,0.8,0.9,1.5,1.2c0.7,0.3,1.7,0.7,3.1,1.1v0.4H238.2z"/>
			<path class="st0" d="M255.1,218.5h5.1V213l4.1-2.7v8.2h7.4v1.8h-7.4v15.4c0,1.4,0.1,2.5,0.3,3.4c0.2,0.9,0.6,1.5,1.1,2
				s1.3,0.7,2.2,0.7c1.7,0,3.3-0.9,4.7-2.8l0.3,0.1c-1.5,3.8-4.1,5.8-7.7,5.8c-1.5,0-2.8-0.5-3.7-1.5c-0.9-1-1.4-2.6-1.4-5v-18.1
				h-5.1V218.5z"/>
			<path class="st0" d="M285.3,239.6V223c0-1-0.1-1.7-0.4-2.2c-0.3-0.5-0.7-0.9-1.4-1.2s-1.7-0.6-3.1-1v-0.4h9v21.4
				c0,0.8,0.1,1.5,0.4,1.9c0.3,0.5,0.8,0.9,1.5,1.2s1.7,0.7,3,1v0.4h-14v-0.4c1.3-0.4,2.4-0.7,3.1-1s1.2-0.7,1.4-1.2
				C285.2,241,285.3,240.4,285.3,239.6z M284.3,209.2c0-0.8,0.3-1.5,0.9-2.2c0.6-0.6,1.3-0.9,2.1-0.9c0.8,0,1.6,0.3,2.2,0.9
				s0.9,1.3,0.9,2.2c0,0.9-0.3,1.6-0.9,2.2c-0.6,0.6-1.3,0.9-2.2,0.9c-0.8,0-1.6-0.3-2.2-0.9S284.3,210.1,284.3,209.2z"/>
			<path class="st0" d="M315.2,244.5l-9.4-21.3c-0.7-1.7-1.4-2.8-2-3.5c-0.6-0.6-1.4-1-2.3-1.2v-0.4h12.2v0.4l-1.4,0.4
				c-1,0.2-1.6,0.5-1.9,0.7c-0.3,0.3-0.4,0.7-0.4,1.4c0,0.5,0.4,1.7,1.3,3.8l6.1,14.5h0.1l6.5-15.5c0.6-1.4,0.9-2.3,0.9-2.9
				c0-0.6-0.3-1.1-0.8-1.4c-0.5-0.3-1.2-0.6-2.1-0.8l-0.7-0.2v-0.4h9.6v0.4c-1.6,0.3-3,1.8-4.2,4.5l-9.1,21.5H315.2z"/>
			<path class="st0" d="M363.5,230.3h-18.3v0.7c0,1.9,0.3,3.7,0.8,5.3c0.5,1.6,1.4,2.9,2.7,3.9c1.2,1,2.8,1.5,4.7,1.5
				c1.9,0,3.6-0.5,5.1-1.4c1.6-0.9,2.8-2.2,3.7-4l0.9,0.4c-0.7,1.8-1.6,3.4-2.6,4.6c-1,1.2-2.2,2.1-3.6,2.6s-3,0.8-4.9,0.8
				c-1.9,0-3.6-0.3-5.1-1s-2.7-1.7-3.7-2.9c-1-1.2-1.8-2.7-2.3-4.4s-0.8-3.5-0.8-5.4c0-1.9,0.3-3.7,0.9-5.4c0.6-1.6,1.4-3.1,2.5-4.4
				c1.1-1.3,2.4-2.3,4-3s3.2-1,4.9-1c2.2,0,4.1,0.5,5.7,1.4c1.7,0.9,3,2.3,3.9,4.1c0.9,1.8,1.4,4.1,1.4,6.8V230.3z M345.3,228.5
				h10.7c1,0,1.7-0.2,2-0.7c0.3-0.5,0.5-1.2,0.5-2c0-1-0.2-2-0.6-3c-0.4-1-1-1.9-1.9-2.6c-0.9-0.7-1.9-1-3.2-1c-1.6,0-3,0.4-4.1,1.3
				s-1.9,2-2.4,3.5C345.7,225.4,345.4,226.9,345.3,228.5z"/>
			<path class="st0" d="M417.3,217.4v9.2H417c-1.5-5-4.2-7.4-8-7.4c-1.9,0-3.5,0.6-4.7,1.7s-2,2.6-2.5,4.3c-0.5,1.7-0.7,3.6-0.7,5.6
				c0,1.3,0.1,2.6,0.4,4c0.3,1.3,0.7,2.5,1.4,3.5s1.5,1.9,2.5,2.5c1.1,0.6,2.3,1,3.8,1c1.8,0,3.4-0.5,4.8-1.5c1.4-1,2.5-2.3,3.3-4
				l0.9,0.4c-0.6,1.8-1.4,3.3-2.5,4.5c-1,1.2-2.2,2.1-3.6,2.7c-1.4,0.6-2.8,0.9-4.4,0.9c-2,0-3.8-0.4-5.3-1.1
				c-1.5-0.7-2.8-1.7-3.7-3c-1-1.3-1.7-2.8-2.2-4.4c-0.5-1.6-0.7-3.3-0.7-5.2c0-1.9,0.3-3.7,0.9-5.4c0.6-1.7,1.5-3.1,2.7-4.4
				c1.2-1.3,2.5-2.3,4-2.9s3.2-1,5-1c1.3,0,2.7,0.2,4.1,0.5c1.4,0.3,2.2,0.5,2.4,0.5c1,0,1.6-0.3,1.9-1H417.3z"/>
			<path class="st0" d="M450.3,223.9v13.6c0,3.1,0.7,4.7,2,4.7c1.1,0,1.9-0.5,2.4-1.5l0.2,0.2c-0.3,1.1-0.9,2-1.7,2.8
				c-0.8,0.8-1.9,1.2-3.2,1.2c-1.4,0-2.4-0.5-2.9-1.4c-0.5-1-0.8-2.2-0.8-3.7h-0.1c-1.9,3.4-4.8,5.2-8.5,5.2c-2.3,0-4.2-0.7-5.5-2
				c-1.3-1.4-2-3.2-2-5.5c0-2.9,1.1-4.8,3.4-5.9c2.3-1.1,5.1-1.8,8.4-2.2l4.2-0.6v-4.3c0-1.7-0.5-3-1.5-3.9s-2.2-1.4-3.7-1.4
				c-1.3,0-2.5,0.3-3.5,1c-1,0.7-1.6,1.7-1.6,3c0,0.9,0.2,1.6,0.5,2.2h-4.8c-0.1-0.4-0.1-0.6-0.1-0.8c0-1.5,0.4-2.8,1.1-3.8
				c0.7-1.1,1.8-1.9,3.3-2.4s3.2-0.8,5.3-0.8c1.5,0,3,0.2,4.4,0.7s2.5,1.2,3.4,2.2C449.8,221.2,450.3,222.5,450.3,223.9z M446.1,235
				v-4.6l-5.1,0.8c-2.2,0.3-3.8,1-4.9,2c-1.1,1-1.6,2.2-1.6,3.7c0,1.3,0.4,2.4,1.2,3.4s2,1.5,3.6,1.5c1.3,0,2.4-0.3,3.5-1
				s1.8-1.5,2.4-2.5C445.9,237.2,446.1,236.1,446.1,235z"/>
			<path class="st0" d="M468.2,239.6V223c0-1-0.1-1.7-0.4-2.2c-0.3-0.5-0.7-0.9-1.4-1.2c-0.6-0.3-1.7-0.6-3.1-1v-0.4h8.8v5.1h0.1
				c2-3.9,4.5-5.9,7.4-5.9c1.2,0,2.2,0.2,3.2,0.7s1.6,1.1,2.1,2s0.7,1.8,0.7,2.9c0,0.6-0.1,1.3-0.3,2.2h-5c0.4-0.8,0.5-1.5,0.5-2.3
				c0-0.6-0.2-1.2-0.6-1.6c-0.4-0.4-1-0.7-1.7-0.7c-0.9,0-1.8,0.3-2.8,1c-1,0.7-1.8,1.5-2.4,2.5s-1,2-1,3v12.6
				c0,0.8,0.1,1.5,0.4,1.9c0.3,0.5,0.8,0.9,1.5,1.2s1.7,0.7,3,1v0.4h-13.9v-0.4c1.3-0.4,2.4-0.7,3.1-1s1.2-0.7,1.4-1.2
				C468.1,241,468.2,240.4,468.2,239.6z"/>
			<path class="st0" d="M517.7,244.9v-10h0.4c0.6,2.5,1.6,4.5,2.9,6c1.3,1.5,3,2.2,5.2,2.2c1.4,0,2.5-0.2,3.4-0.7
				c0.9-0.5,1.5-1.1,1.9-1.8c0.4-0.8,0.6-1.6,0.6-2.6c0-1.6-0.6-2.7-1.7-3.4s-2.9-1.4-5.4-2.1s-4.3-1.7-5.5-2.7s-1.9-2.6-1.9-4.8
				c0-2.2,0.8-4.1,2.5-5.5s4-2.1,6.8-2.1c0.9,0,1.7,0,2.2,0.1c0.6,0.1,1.2,0.2,1.8,0.4c0.6,0.2,1.2,0.3,1.6,0.4
				c0.4,0.1,0.8,0.1,1.1,0.1c0.5,0,1-0.3,1.5-1h0.4v9.3h-0.4c-0.5-1.5-1.1-2.8-1.8-3.9c-0.7-1.1-1.6-2-2.6-2.7c-1-0.7-2.3-1-3.8-1
				c-1.4,0-2.5,0.4-3.5,1.2c-1,0.8-1.5,2-1.5,3.5c0,1.6,0.6,2.8,1.7,3.5c1.1,0.7,2.9,1.4,5.5,2.1c2.5,0.8,4.4,1.7,5.7,2.7
				c1.3,1.1,1.9,2.7,1.9,5c0,1.5-0.4,2.8-1.2,4c-0.8,1.2-2,2.1-3.5,2.7c-1.5,0.6-3.2,1-5,1c-1.5,0-2.8-0.1-3.7-0.3
				c-1-0.2-1.8-0.4-2.5-0.6c-0.7-0.2-1.2-0.3-1.3-0.3c-0.3,0-0.5,0.1-0.8,0.4c-0.3,0.2-0.5,0.5-0.6,0.8H517.7z"/>
			<path class="st0" d="M572.5,230.3h-18.3v0.7c0,1.9,0.3,3.7,0.8,5.3c0.5,1.6,1.4,2.9,2.7,3.9c1.2,1,2.8,1.5,4.7,1.5
				c1.9,0,3.6-0.5,5.1-1.4c1.6-0.9,2.8-2.2,3.7-4l0.9,0.4c-0.7,1.8-1.6,3.4-2.6,4.6s-2.2,2.1-3.6,2.6c-1.4,0.6-3,0.8-4.9,0.8
				c-1.9,0-3.6-0.3-5.1-1s-2.7-1.7-3.7-2.9c-1-1.2-1.8-2.7-2.3-4.4c-0.5-1.7-0.8-3.5-0.8-5.4c0-1.9,0.3-3.7,0.9-5.4
				c0.6-1.6,1.4-3.1,2.5-4.4c1.1-1.3,2.4-2.3,4-3s3.2-1,4.9-1c2.2,0,4.1,0.5,5.7,1.4c1.7,0.9,3,2.3,3.9,4.1c0.9,1.8,1.4,4.1,1.4,6.8
				V230.3z M554.3,228.5h10.7c1,0,1.7-0.2,2-0.7c0.3-0.5,0.5-1.2,0.5-2c0-1-0.2-2-0.6-3s-1-1.9-1.9-2.6c-0.9-0.7-1.9-1-3.2-1
				c-1.6,0-3,0.4-4.1,1.3s-1.9,2-2.4,3.5C554.7,225.4,554.3,226.9,554.3,228.5z"/>
			<path class="st0" d="M586.6,239.6V223c0-1-0.1-1.7-0.4-2.2c-0.3-0.5-0.7-0.9-1.4-1.2s-1.7-0.6-3.1-1v-0.4h8.8v5.1h0.1
				c2-3.9,4.5-5.9,7.4-5.9c1.2,0,2.2,0.2,3.2,0.7s1.6,1.1,2.1,2c0.5,0.8,0.7,1.8,0.7,2.9c0,0.6-0.1,1.3-0.3,2.2h-5
				c0.4-0.8,0.5-1.5,0.5-2.3c0-0.6-0.2-1.2-0.6-1.6c-0.4-0.4-1-0.7-1.7-0.7c-0.9,0-1.8,0.3-2.8,1s-1.8,1.5-2.4,2.5c-0.6,1-1,2-1,3
				v12.6c0,0.8,0.1,1.5,0.4,1.9c0.3,0.5,0.8,0.9,1.5,1.2c0.7,0.3,1.7,0.7,3,1v0.4h-13.9v-0.4c1.3-0.4,2.4-0.7,3.1-1
				c0.7-0.3,1.2-0.7,1.4-1.2C586.5,241,586.6,240.4,586.6,239.6z"/>
			<path class="st0" d="M625.3,244.5l-9.4-21.3c-0.7-1.7-1.4-2.8-2-3.5c-0.6-0.6-1.4-1-2.3-1.2v-0.4h12.2v0.4l-1.4,0.4
				c-1,0.2-1.6,0.5-1.9,0.7c-0.3,0.3-0.4,0.7-0.4,1.4c0,0.5,0.4,1.7,1.3,3.8l6.1,14.5h0.1l6.5-15.5c0.6-1.4,0.9-2.3,0.9-2.9
				c0-0.6-0.3-1.1-0.8-1.4s-1.2-0.6-2.1-0.8l-0.7-0.2v-0.4h9.6v0.4c-1.6,0.3-3,1.8-4.2,4.5l-9.1,21.5H625.3z"/>
			<path class="st0" d="M653.2,239.6V223c0-1-0.1-1.7-0.4-2.2c-0.3-0.5-0.7-0.9-1.4-1.2s-1.7-0.6-3.1-1v-0.4h9v21.4
				c0,0.8,0.1,1.5,0.4,1.9s0.8,0.9,1.5,1.2s1.7,0.7,3,1v0.4h-14v-0.4c1.3-0.4,2.4-0.7,3.1-1c0.7-0.3,1.2-0.7,1.4-1.2
				C653,241,653.2,240.4,653.2,239.6z M652.1,209.2c0-0.8,0.3-1.5,0.9-2.2c0.6-0.6,1.3-0.9,2.1-0.9c0.8,0,1.6,0.3,2.2,0.9
				s0.9,1.3,0.9,2.2c0,0.9-0.3,1.6-0.9,2.2c-0.6,0.6-1.3,0.9-2.2,0.9c-0.8,0-1.6-0.3-2.2-0.9C652.4,210.8,652.1,210.1,652.1,209.2z"
				/>
			<path class="st0" d="M693.7,217.4v9.2h-0.4c-1.5-5-4.2-7.4-8-7.4c-1.9,0-3.5,0.6-4.7,1.7s-2,2.6-2.5,4.3
				c-0.5,1.7-0.7,3.6-0.7,5.6c0,1.3,0.1,2.6,0.4,4c0.3,1.3,0.7,2.5,1.4,3.5s1.5,1.9,2.5,2.5c1.1,0.6,2.3,1,3.8,1
				c1.8,0,3.4-0.5,4.8-1.5c1.4-1,2.5-2.3,3.3-4l0.9,0.4c-0.6,1.8-1.4,3.3-2.5,4.5c-1,1.2-2.2,2.1-3.6,2.7s-2.8,0.9-4.4,0.9
				c-2,0-3.8-0.4-5.3-1.1c-1.5-0.7-2.8-1.7-3.7-3c-1-1.3-1.7-2.8-2.2-4.4c-0.5-1.6-0.7-3.3-0.7-5.2c0-1.9,0.3-3.7,0.9-5.4
				c0.6-1.7,1.5-3.1,2.7-4.4c1.2-1.3,2.5-2.3,4-2.9s3.2-1,5-1c1.3,0,2.7,0.2,4.1,0.5c1.4,0.3,2.2,0.5,2.4,0.5c1,0,1.6-0.3,1.9-1
				H693.7z"/>
			<path class="st0" d="M729.4,230.3h-18.3v0.7c0,1.9,0.3,3.7,0.8,5.3c0.5,1.6,1.4,2.9,2.7,3.9c1.2,1,2.8,1.5,4.7,1.5
				c1.9,0,3.6-0.5,5.1-1.4c1.6-0.9,2.8-2.2,3.7-4l0.9,0.4c-0.7,1.8-1.6,3.4-2.6,4.6s-2.2,2.1-3.6,2.6c-1.4,0.6-3,0.8-4.9,0.8
				c-1.9,0-3.6-0.3-5.1-1s-2.7-1.7-3.7-2.9c-1-1.2-1.8-2.7-2.3-4.4c-0.5-1.7-0.8-3.5-0.8-5.4c0-1.9,0.3-3.7,0.9-5.4
				c0.6-1.6,1.4-3.1,2.5-4.4c1.1-1.3,2.4-2.3,4-3s3.2-1,4.9-1c2.2,0,4.1,0.5,5.7,1.4c1.7,0.9,3,2.3,3.9,4.1c0.9,1.8,1.4,4.1,1.4,6.8
				V230.3z M711.2,228.5h10.7c1,0,1.7-0.2,2-0.7c0.3-0.5,0.5-1.2,0.5-2c0-1-0.2-2-0.6-3s-1-1.9-1.9-2.6c-0.9-0.7-1.9-1-3.2-1
				c-1.6,0-3,0.4-4.1,1.3s-1.9,2-2.4,3.5C711.6,225.4,711.3,226.9,711.2,228.5z"/>
		</g>
	</g>
</g>
</svg>
